<mxfile host="app.diagrams.net" modified="2021-02-27T02:14:40.442Z" agent="5.0 (Windows NT 10.0; Win64; x64) AppleWebKit/537.36 (KHTML, like Gecko) Chrome/87.0.4280.141 Safari/537.36 OPR/73.0.3856.400" etag="a8a8pcbXpuqepd62zoK3" version="14.4.3" type="github">
  <diagram id="C5RBs43oDa-KdzZeNtuy" name="Page-1">
    <mxGraphModel dx="1039" dy="548" grid="1" gridSize="10" guides="1" tooltips="1" connect="1" arrows="1" fold="1" page="1" pageScale="1" pageWidth="827" pageHeight="1169" math="0" shadow="0">
      <root>
        <mxCell id="WIyWlLk6GJQsqaUBKTNV-0" />
        <mxCell id="WIyWlLk6GJQsqaUBKTNV-1" parent="WIyWlLk6GJQsqaUBKTNV-0" />
        <mxCell id="dGmonCcaSxwbUPs2zDwR-0" value="Restaurant" style="swimlane;fontStyle=1;align=center;verticalAlign=top;childLayout=stackLayout;horizontal=1;startSize=26;horizontalStack=0;resizeParent=1;resizeParentMax=0;resizeLast=0;collapsible=1;marginBottom=0;" vertex="1" parent="WIyWlLk6GJQsqaUBKTNV-1">
          <mxGeometry x="90" y="80" width="200" height="108" as="geometry" />
        </mxCell>
        <mxCell id="dGmonCcaSxwbUPs2zDwR-1" value="- * firstVehicle, *lastVehicle: Vehicle " style="text;strokeColor=none;fillColor=none;align=left;verticalAlign=top;spacingLeft=4;spacingRight=4;overflow=hidden;rotatable=0;points=[[0,0.5],[1,0.5]];portConstraint=eastwest;" vertex="1" parent="dGmonCcaSxwbUPs2zDwR-0">
          <mxGeometry y="26" width="200" height="24" as="geometry" />
        </mxCell>
        <mxCell id="dGmonCcaSxwbUPs2zDwR-2" value="" style="line;strokeWidth=1;fillColor=none;align=left;verticalAlign=middle;spacingTop=-1;spacingLeft=3;spacingRight=3;rotatable=0;labelPosition=right;points=[];portConstraint=eastwest;" vertex="1" parent="dGmonCcaSxwbUPs2zDwR-0">
          <mxGeometry y="50" width="200" height="8" as="geometry" />
        </mxCell>
        <mxCell id="dGmonCcaSxwbUPs2zDwR-3" value="+addVehicle(Vehicle *): void&#xa;+makeDelivery(string): void&#xa;" style="text;strokeColor=none;fillColor=none;align=left;verticalAlign=top;spacingLeft=4;spacingRight=4;overflow=hidden;rotatable=0;points=[[0,0.5],[1,0.5]];portConstraint=eastwest;" vertex="1" parent="dGmonCcaSxwbUPs2zDwR-0">
          <mxGeometry y="58" width="200" height="50" as="geometry" />
        </mxCell>
        <mxCell id="dGmonCcaSxwbUPs2zDwR-4" value="Vehicle" style="swimlane;fontStyle=1;align=center;verticalAlign=top;childLayout=stackLayout;horizontal=1;startSize=26;horizontalStack=0;resizeParent=1;resizeParentMax=0;resizeLast=0;collapsible=1;marginBottom=0;" vertex="1" parent="WIyWlLk6GJQsqaUBKTNV-1">
          <mxGeometry x="420" y="80" width="220" height="150" as="geometry" />
        </mxCell>
        <mxCell id="dGmonCcaSxwbUPs2zDwR-5" value="# speed: double&#xa;# distanceToRestaurant: dobule&#xa;# next: Vehicle* = NULL" style="text;strokeColor=none;fillColor=none;align=left;verticalAlign=top;spacingLeft=4;spacingRight=4;overflow=hidden;rotatable=0;points=[[0,0.5],[1,0.5]];portConstraint=eastwest;" vertex="1" parent="dGmonCcaSxwbUPs2zDwR-4">
          <mxGeometry y="26" width="220" height="54" as="geometry" />
        </mxCell>
        <mxCell id="dGmonCcaSxwbUPs2zDwR-6" value="" style="line;strokeWidth=1;fillColor=none;align=left;verticalAlign=middle;spacingTop=-1;spacingLeft=3;spacingRight=3;rotatable=0;labelPosition=right;points=[];portConstraint=eastwest;" vertex="1" parent="dGmonCcaSxwbUPs2zDwR-4">
          <mxGeometry y="80" width="220" height="8" as="geometry" />
        </mxCell>
        <mxCell id="dGmonCcaSxwbUPs2zDwR-7" value="+ getTimeToArrive(): virtual double  = 0&#xa;+ makeDelivery(string): virtual void = 0&#xa;+setNext(Vehicle * pVehicle): void &#xa;+getNext(): Vehicle * " style="text;strokeColor=none;fillColor=none;align=left;verticalAlign=top;spacingLeft=4;spacingRight=4;overflow=hidden;rotatable=0;points=[[0,0.5],[1,0.5]];portConstraint=eastwest;" vertex="1" parent="dGmonCcaSxwbUPs2zDwR-4">
          <mxGeometry y="88" width="220" height="62" as="geometry" />
        </mxCell>
        <mxCell id="dGmonCcaSxwbUPs2zDwR-8" value="Car" style="swimlane;fontStyle=1;align=center;verticalAlign=top;childLayout=stackLayout;horizontal=1;startSize=26;horizontalStack=0;resizeParent=1;resizeParentMax=0;resizeLast=0;collapsible=1;marginBottom=0;" vertex="1" parent="WIyWlLk6GJQsqaUBKTNV-1">
          <mxGeometry x="260" y="311" width="160" height="116" as="geometry" />
        </mxCell>
        <mxCell id="dGmonCcaSxwbUPs2zDwR-10" value="" style="line;strokeWidth=1;fillColor=none;align=left;verticalAlign=middle;spacingTop=-1;spacingLeft=3;spacingRight=3;rotatable=0;labelPosition=right;points=[];portConstraint=eastwest;" vertex="1" parent="dGmonCcaSxwbUPs2zDwR-8">
          <mxGeometry y="26" width="160" height="24" as="geometry" />
        </mxCell>
        <mxCell id="dGmonCcaSxwbUPs2zDwR-11" value="+Car()&#xa;+Car(double, double)&#xa;+ double getTimeToArrive()&#xa;+ void makeDelivery(string)" style="text;strokeColor=none;fillColor=none;align=left;verticalAlign=top;spacingLeft=4;spacingRight=4;overflow=hidden;rotatable=0;points=[[0,0.5],[1,0.5]];portConstraint=eastwest;" vertex="1" parent="dGmonCcaSxwbUPs2zDwR-8">
          <mxGeometry y="50" width="160" height="66" as="geometry" />
        </mxCell>
        <mxCell id="dGmonCcaSxwbUPs2zDwR-12" value="Bicycle" style="swimlane;fontStyle=1;align=center;verticalAlign=top;childLayout=stackLayout;horizontal=1;startSize=26;horizontalStack=0;resizeParent=1;resizeParentMax=0;resizeLast=0;collapsible=1;marginBottom=0;" vertex="1" parent="WIyWlLk6GJQsqaUBKTNV-1">
          <mxGeometry x="600" y="311" width="160" height="120" as="geometry" />
        </mxCell>
        <mxCell id="dGmonCcaSxwbUPs2zDwR-14" value="" style="line;strokeWidth=1;fillColor=none;align=left;verticalAlign=middle;spacingTop=-1;spacingLeft=3;spacingRight=3;rotatable=0;labelPosition=right;points=[];portConstraint=eastwest;" vertex="1" parent="dGmonCcaSxwbUPs2zDwR-12">
          <mxGeometry y="26" width="160" height="24" as="geometry" />
        </mxCell>
        <mxCell id="dGmonCcaSxwbUPs2zDwR-15" value="+Bicycle()&#xa;+Bicycle(double, double)&#xa;+ double getTimeToArrive()&#xa;+ void makeDelivery(string)" style="text;strokeColor=none;fillColor=none;align=left;verticalAlign=top;spacingLeft=4;spacingRight=4;overflow=hidden;rotatable=0;points=[[0,0.5],[1,0.5]];portConstraint=eastwest;" vertex="1" parent="dGmonCcaSxwbUPs2zDwR-12">
          <mxGeometry y="50" width="160" height="70" as="geometry" />
        </mxCell>
        <mxCell id="dGmonCcaSxwbUPs2zDwR-16" value="Motorcycle" style="swimlane;fontStyle=1;align=center;verticalAlign=top;childLayout=stackLayout;horizontal=1;startSize=26;horizontalStack=0;resizeParent=1;resizeParentMax=0;resizeLast=0;collapsible=1;marginBottom=0;" vertex="1" parent="WIyWlLk6GJQsqaUBKTNV-1">
          <mxGeometry x="430" y="311" width="160" height="120" as="geometry" />
        </mxCell>
        <mxCell id="dGmonCcaSxwbUPs2zDwR-18" value="" style="line;strokeWidth=1;fillColor=none;align=left;verticalAlign=middle;spacingTop=-1;spacingLeft=3;spacingRight=3;rotatable=0;labelPosition=right;points=[];portConstraint=eastwest;" vertex="1" parent="dGmonCcaSxwbUPs2zDwR-16">
          <mxGeometry y="26" width="160" height="24" as="geometry" />
        </mxCell>
        <mxCell id="dGmonCcaSxwbUPs2zDwR-19" value="+Motorcycle()&#xa;+Motorcycle(double, double)&#xa;+ double getTimeToArrive()&#xa;+ void makeDelivery(string)" style="text;strokeColor=none;fillColor=none;align=left;verticalAlign=top;spacingLeft=4;spacingRight=4;overflow=hidden;rotatable=0;points=[[0,0.5],[1,0.5]];portConstraint=eastwest;" vertex="1" parent="dGmonCcaSxwbUPs2zDwR-16">
          <mxGeometry y="50" width="160" height="70" as="geometry" />
        </mxCell>
        <mxCell id="dGmonCcaSxwbUPs2zDwR-23" value="Extends" style="endArrow=block;endSize=16;endFill=0;html=1;exitX=0.5;exitY=0;exitDx=0;exitDy=0;" edge="1" parent="WIyWlLk6GJQsqaUBKTNV-1" source="dGmonCcaSxwbUPs2zDwR-8" target="dGmonCcaSxwbUPs2zDwR-7">
          <mxGeometry width="160" relative="1" as="geometry">
            <mxPoint x="390" y="300" as="sourcePoint" />
            <mxPoint x="480" y="273" as="targetPoint" />
          </mxGeometry>
        </mxCell>
        <mxCell id="dGmonCcaSxwbUPs2zDwR-24" value="Extends" style="endArrow=block;endSize=16;endFill=0;html=1;entryX=0.511;entryY=1.006;entryDx=0;entryDy=0;entryPerimeter=0;exitX=0.5;exitY=0;exitDx=0;exitDy=0;" edge="1" parent="WIyWlLk6GJQsqaUBKTNV-1" source="dGmonCcaSxwbUPs2zDwR-12" target="dGmonCcaSxwbUPs2zDwR-7">
          <mxGeometry width="160" relative="1" as="geometry">
            <mxPoint x="500" y="310" as="sourcePoint" />
            <mxPoint x="660" y="310" as="targetPoint" />
          </mxGeometry>
        </mxCell>
        <mxCell id="dGmonCcaSxwbUPs2zDwR-25" value="Extends" style="endArrow=block;endSize=16;endFill=0;html=1;exitX=0.5;exitY=0;exitDx=0;exitDy=0;" edge="1" parent="WIyWlLk6GJQsqaUBKTNV-1" source="dGmonCcaSxwbUPs2zDwR-16" target="dGmonCcaSxwbUPs2zDwR-7">
          <mxGeometry width="160" relative="1" as="geometry">
            <mxPoint x="658.02" y="340.63" as="sourcePoint" />
            <mxPoint x="510" y="232" as="targetPoint" />
          </mxGeometry>
        </mxCell>
        <mxCell id="dGmonCcaSxwbUPs2zDwR-26" value="" style="endArrow=diamondThin;endFill=0;endSize=24;html=1;entryX=1;entryY=0.5;entryDx=0;entryDy=0;exitX=0;exitY=0.259;exitDx=0;exitDy=0;exitPerimeter=0;" edge="1" parent="WIyWlLk6GJQsqaUBKTNV-1" source="dGmonCcaSxwbUPs2zDwR-5" target="dGmonCcaSxwbUPs2zDwR-1">
          <mxGeometry width="160" relative="1" as="geometry">
            <mxPoint x="300" y="170" as="sourcePoint" />
            <mxPoint x="460" y="170" as="targetPoint" />
          </mxGeometry>
        </mxCell>
        <mxCell id="dGmonCcaSxwbUPs2zDwR-27" value="Observable" style="text;html=1;align=center;verticalAlign=middle;resizable=0;points=[];autosize=1;" vertex="1" parent="WIyWlLk6GJQsqaUBKTNV-1">
          <mxGeometry x="90" y="60" width="80" height="20" as="geometry" />
        </mxCell>
        <mxCell id="dGmonCcaSxwbUPs2zDwR-28" value="Observador" style="text;html=1;align=center;verticalAlign=middle;resizable=0;points=[];autosize=1;" vertex="1" parent="WIyWlLk6GJQsqaUBKTNV-1">
          <mxGeometry x="420" y="60" width="80" height="20" as="geometry" />
        </mxCell>
        <mxCell id="dGmonCcaSxwbUPs2zDwR-30" value="*" style="text;html=1;align=center;verticalAlign=middle;resizable=0;points=[];autosize=1;" vertex="1" parent="WIyWlLk6GJQsqaUBKTNV-1">
          <mxGeometry x="290" y="120" width="20" height="20" as="geometry" />
        </mxCell>
      </root>
    </mxGraphModel>
  </diagram>
</mxfile>
